<svg width="213" height="172" viewBox="0 0 213 172" fill="none" xmlns="http://www.w3.org/2000/svg">
<g filter="url(#filter0_dd_95_1617)">
<path d="M2.375 50C2.375 43.3726 7.74758 38 14.375 38H30.375C37.0024 38 42.375 43.3726 42.375 50V66C42.375 72.6274 37.0024 78 30.375 78H14.375C7.74758 78 2.375 72.6274 2.375 66V50Z" fill="#FAFAFA" shape-rendering="crispEdges"/>
<path d="M31.0613 56.1842C31.288 55.5108 31.3664 54.7974 31.2913 54.0917C31.2161 53.3859 30.9892 52.7042 30.6256 52.0919C30.0866 51.1664 29.2636 50.4337 28.2752 49.9994C27.2868 49.565 26.1841 49.4515 25.1261 49.6752C24.525 49.0157 23.7585 48.5238 22.9037 48.2489C22.0489 47.974 21.1359 47.9258 20.2562 48.1092C19.3765 48.2926 18.5613 48.701 17.8923 49.2935C17.2233 49.8861 16.7242 50.6418 16.445 51.4848C15.7402 51.6274 15.0743 51.9167 14.4919 52.3335C13.9094 52.7502 13.4239 53.2848 13.0677 53.9015C12.5228 54.8254 12.29 55.8963 12.4028 56.9594C12.5155 58.0225 12.9682 59.0226 13.6952 59.8153C13.4676 60.4884 13.3884 61.2017 13.4629 61.9074C13.5373 62.6131 13.7637 63.295 14.1269 63.9075C14.6666 64.8333 15.4903 65.5662 16.4794 66.0005C17.4685 66.4349 18.5719 66.5482 19.6305 66.3243C20.108 66.8547 20.6948 67.2786 21.3516 67.5675C22.0084 67.8565 22.7202 68.0039 23.4394 67.9999C24.5238 68.0009 25.5805 67.662 26.4569 67.032C27.3334 66.402 27.9842 65.5137 28.3155 64.4951C29.0202 64.3523 29.686 64.0628 30.2684 63.6461C30.8508 63.2293 31.3364 62.6949 31.6928 62.0784C32.2312 61.1558 32.4601 60.0889 32.3467 59.0302C32.2332 57.9716 31.7833 56.9754 31.0613 56.1842ZM23.4394 66.6909C22.5513 66.6923 21.691 66.3853 21.0094 65.8236L21.1292 65.7566L25.166 63.4581C25.2665 63.4 25.3499 63.3171 25.4081 63.2175C25.4662 63.118 25.4971 63.0052 25.4978 62.8904V57.2763L27.2043 58.2501C27.2127 58.2543 27.22 58.2605 27.2256 58.268C27.2312 58.2755 27.2349 58.2842 27.2364 58.2934V62.9456C27.2343 63.9383 26.8335 64.8897 26.1219 65.5916C25.4103 66.2936 24.4458 66.6888 23.4394 66.6909ZM15.2779 63.2531C14.8325 62.4945 14.6726 61.6052 14.8263 60.7417L14.9462 60.8127L18.987 63.1112C19.087 63.1691 19.2008 63.1996 19.3167 63.1996C19.4326 63.1996 19.5465 63.1691 19.6464 63.1112L24.5825 60.3041V62.2478C24.582 62.2578 24.5793 62.2677 24.5744 62.2766C24.5696 62.2854 24.5627 62.2931 24.5545 62.299L20.4657 64.6251C19.5931 65.1209 18.5567 65.255 17.5841 64.9977C16.6114 64.7405 15.782 64.113 15.2779 63.2531ZM14.2148 54.5796C14.6633 53.8161 15.3712 53.2337 16.2132 52.9356V57.6666C16.2117 57.7809 16.2413 57.8935 16.2989 57.9927C16.3566 58.0918 16.4401 58.1739 16.5409 58.2304L21.453 61.0256L19.7464 61.9994C19.7371 62.0042 19.7268 62.0067 19.7164 62.0067C19.7059 62.0067 19.6956 62.0042 19.6864 61.9994L15.6057 59.6773C14.7347 59.1793 14.0994 58.3611 13.8387 57.402C13.578 56.4429 13.7132 55.4209 14.2148 54.56V54.5796ZM28.2356 57.7928L23.3075 54.97L25.0101 54C25.0194 53.9951 25.0297 53.9926 25.0401 53.9926C25.0506 53.9926 25.0609 53.9951 25.0701 54L29.1508 56.326C29.7748 56.6812 30.2834 57.204 30.6174 57.8336C30.9514 58.4632 31.0969 59.1735 31.037 59.8816C30.977 60.5897 30.7141 61.2664 30.279 61.8326C29.8438 62.3989 29.2543 62.8313 28.5793 63.0795V58.3485C28.5758 58.2344 28.5422 58.1232 28.4819 58.0257C28.4217 57.9283 28.3368 57.8481 28.2356 57.7928ZM29.9342 55.2735L29.8143 55.2025L25.7815 52.8844C25.681 52.8262 25.5664 52.7955 25.4498 52.7955C25.3331 52.7955 25.2186 52.8262 25.118 52.8844L20.1861 55.6914V53.7478C20.185 53.7379 20.1867 53.7279 20.1909 53.7189C20.1952 53.7099 20.2018 53.7022 20.2101 53.6965L24.2908 51.3744C24.9162 51.019 25.6313 50.8466 26.3524 50.8774C27.0735 50.9081 27.7708 51.1408 28.3628 51.5481C28.9548 51.9555 29.417 52.5206 29.6952 53.1776C29.9735 53.8345 30.0565 54.556 29.9343 55.2577L29.9342 55.2735ZM19.2547 58.7191L17.5482 57.7493C17.5396 57.7442 17.5323 57.7374 17.5268 57.7292C17.5212 57.721 17.5176 57.7118 17.5161 57.702V53.0618C17.517 52.3499 17.7234 51.6531 18.111 51.0526C18.4987 50.4522 19.0516 49.973 19.7052 49.6712C20.3587 49.3693 21.0859 49.2572 21.8017 49.348C22.5175 49.4387 23.1922 49.7286 23.7472 50.1837L23.6272 50.2508L19.5905 52.5491C19.49 52.6073 19.4066 52.6902 19.3485 52.7897C19.2903 52.8892 19.2594 53.002 19.2587 53.1169L19.2547 58.7191ZM20.182 56.748L22.3802 55.4981L24.5825 56.748V59.2474L22.3882 60.4972L20.186 59.2474L20.182 56.748Z" fill="black" fill-opacity="0.85"/>
</g>
<g filter="url(#filter1_dd_95_1617)">
<path d="M58.375 50C58.375 43.3726 63.7476 38 70.375 38H86.375C93.0024 38 98.375 43.3726 98.375 50V66C98.375 72.6274 93.0024 78 86.375 78H70.375C63.7476 78 58.375 72.6274 58.375 66V50Z" fill="#FAFAFA" shape-rendering="crispEdges"/>
<path d="M78.846 61.5111H81.4859C81.6693 61.5111 81.8193 61.6628 81.8193 61.8488V63.4087C82.1372 63.4871 82.4196 63.6701 82.621 63.9283C82.8225 64.1864 82.9313 64.5048 82.9301 64.8323C82.9301 65.6406 82.283 66.2963 81.4859 66.2963C80.6879 66.2963 80.0408 65.6406 80.0408 64.8323C80.0408 64.1406 80.5156 63.5604 81.1524 63.4078V62.1864H78.8468V66.1831C78.8471 66.2412 78.8324 66.2983 78.8041 66.349C78.7759 66.3998 78.7351 66.4424 78.6857 66.4728L76.3801 67.8793C76.3278 67.9113 76.2676 67.9281 76.2063 67.9278C76.145 67.9275 76.085 67.9101 76.033 67.8776L71.8109 65.2326C71.7622 65.202 71.722 65.1595 71.6943 65.1091C71.6666 65.0587 71.6521 65.0021 71.6523 64.9446V62.1856L69.543 60.9599C69.495 60.9321 69.4546 60.893 69.4253 60.8459C69.396 60.7988 69.3788 60.7453 69.375 60.6899V60.6668V56.2767C69.375 56.1567 69.4376 56.0453 69.5396 55.9853L71.6523 54.7322V52.0272C71.6523 51.9167 71.7055 51.8138 71.7937 51.7512L71.8117 51.7392L76.0347 49.1216C76.087 49.0891 76.1474 49.0718 76.2091 49.0718C76.2708 49.0718 76.3312 49.0891 76.3835 49.1216L78.6891 50.5573C78.7378 50.5879 78.778 50.6304 78.8057 50.6807C78.8335 50.7311 78.8479 50.7878 78.8477 50.8453V54.7288H82.1527V53.0857C81.8346 53.0073 81.5521 52.8242 81.3506 52.5658C81.1492 52.3075 81.0404 51.9889 81.0419 51.6612C81.0419 50.853 81.689 50.1973 82.4861 50.1973C83.2841 50.1973 83.9303 50.853 83.9303 51.6612C83.9303 52.3529 83.4563 52.9332 82.8195 53.0857V55.0665C82.8198 55.1106 82.8115 55.1543 82.7949 55.1951C82.7783 55.236 82.7538 55.2732 82.7229 55.3045C82.6919 55.3359 82.655 55.3609 82.6144 55.378C82.5738 55.3951 82.5302 55.404 82.4861 55.4042H78.8477V56.9521H84.5251C84.5981 56.6334 84.7766 56.3488 85.0318 56.1445C85.2871 55.9402 85.6039 55.8282 85.9308 55.8268C86.7279 55.8268 87.375 56.4816 87.375 57.2898C87.375 58.0981 86.7287 58.7538 85.9308 58.7538C85.6038 58.7523 85.2868 58.6402 85.0316 58.4357C84.7764 58.2312 84.5979 57.9464 84.5251 57.6275H78.846V59.2877H83.0912L83.8755 60.2991C84.0939 60.1714 84.3424 60.1042 84.5954 60.1045C85.3934 60.1045 86.0396 60.7594 86.0396 61.5676C86.0396 62.3759 85.3934 63.0316 84.5954 63.0316C83.7983 63.0316 83.1512 62.3759 83.1512 61.5676C83.1512 61.2711 83.2386 60.9951 83.3878 60.7645L82.7672 59.9631H78.846V61.5111ZM76.2087 49.8056L74.4576 50.8907V53.4346H73.7908V51.3038L72.3191 52.2166V54.7408L74.1276 55.9065L75.985 54.7374V52.7866H76.6518V54.9259C76.6518 55.0425 76.5918 55.1514 76.4941 55.2131L74.4859 56.4756V58.2592L75.7047 59.124L75.3224 59.6777L74.1173 58.8223L72.806 59.6837L72.4434 59.118L73.8191 58.2138V56.5081L71.9789 55.3202L70.0418 56.4687V57.9052L71.732 56.8861L72.0732 57.4664L70.0418 58.6912V60.4714L71.8983 61.5496L73.8439 60.3771L74.1842 60.9574L72.3191 62.081V64.7569L73.9271 65.764L75.9541 64.5418L76.2952 65.1229L74.5665 66.1651L76.2104 67.1945L78.18 65.992V61.0379L74.1019 63.5175L73.7591 62.939L78.18 60.2511V51.0338L76.2087 49.8056ZM81.4859 64.0455C81.3829 64.0461 81.2812 64.0669 81.1863 64.1069C81.0915 64.1468 81.0054 64.2051 80.9332 64.2783C80.8609 64.3516 80.8037 64.4384 80.765 64.5337C80.7263 64.6291 80.7068 64.7311 80.7076 64.834C80.7076 65.2686 81.0556 65.6209 81.4859 65.6209C81.5886 65.6202 81.6902 65.5993 81.7849 65.5593C81.8796 65.5194 81.9655 65.4612 82.0377 65.388C82.1099 65.3149 82.1669 65.2282 82.2056 65.133C82.2443 65.0378 82.2639 64.9359 82.2632 64.8332C82.264 64.7303 82.2445 64.6284 82.2059 64.5331C82.1672 64.4378 82.1102 64.351 82.038 64.2778C81.9658 64.2045 81.8799 64.1463 81.7851 64.1063C81.6904 64.0663 81.5887 64.0462 81.4859 64.0455ZM84.5971 60.7799C84.4942 60.7805 84.3924 60.8014 84.2976 60.8413C84.2028 60.8813 84.1167 60.9395 84.0444 61.0128C83.9721 61.086 83.915 61.1728 83.8763 61.2682C83.8376 61.3635 83.8181 61.4656 83.8189 61.5685C83.8189 62.0039 84.1669 62.357 84.5963 62.357C84.6992 62.3565 84.801 62.3356 84.8958 62.2956C84.9907 62.2557 85.0767 62.1974 85.149 62.1242C85.2213 62.0509 85.2784 61.9642 85.3171 61.8688C85.3558 61.7734 85.3753 61.6714 85.3745 61.5685C85.3753 61.4656 85.3558 61.3635 85.3171 61.2682C85.2784 61.1728 85.2213 61.086 85.149 61.0128C85.0767 60.9395 84.9907 60.8813 84.8958 60.8413C84.801 60.8014 84.7 60.7805 84.5971 60.7799ZM85.9299 56.503C85.827 56.5036 85.7252 56.5244 85.6304 56.5644C85.5355 56.6043 85.4495 56.6626 85.3772 56.7358C85.3049 56.8091 85.2478 56.8959 85.2091 56.9912C85.1704 57.0866 85.1509 57.1886 85.1517 57.2915C85.1517 57.7261 85.5005 58.0784 85.9299 58.0784C86.0327 58.0777 86.1343 58.0568 86.229 58.0168C86.3237 57.9769 86.4096 57.9187 86.4818 57.8455C86.5539 57.7724 86.611 57.6857 86.6497 57.5905C86.6884 57.4953 86.708 57.3934 86.7073 57.2907C86.7081 57.1878 86.6886 57.0859 86.65 56.9906C86.6113 56.8953 86.5543 56.8085 86.4821 56.7353C86.4099 56.662 86.3239 56.6038 86.2292 56.5638C86.1345 56.5238 86.0328 56.5028 85.9299 56.5021V56.503ZM82.4852 50.8718C82.3824 50.8725 82.2807 50.8935 82.186 50.9335C82.0912 50.9735 82.0053 51.0317 81.9331 51.105C81.8609 51.1782 81.8038 51.265 81.7652 51.3603C81.7265 51.4556 81.7071 51.5575 81.7078 51.6604C81.7078 52.0958 82.0558 52.4489 82.4852 52.4489C82.5881 52.4484 82.6899 52.4275 82.7848 52.3875C82.8796 52.3476 82.9656 52.2893 83.0379 52.2161C83.1102 52.1428 83.1673 52.0561 83.2061 51.9607C83.2448 51.8653 83.2643 51.7633 83.2635 51.6604C83.2643 51.5575 83.2448 51.4554 83.2061 51.3601C83.1673 51.2647 83.1102 51.1779 83.0379 51.1047C82.9656 51.0314 82.8796 50.9732 82.7848 50.9332C82.6899 50.8933 82.5881 50.8724 82.4852 50.8718Z" fill="url(#paint0_linear_95_1617)"/>
</g>
<g filter="url(#filter2_dd_95_1617)">
<path d="M114.375 50C114.375 43.3726 119.748 38 126.375 38H142.375C149.002 38 154.375 43.3726 154.375 50V66C154.375 72.6274 149.002 78 142.375 78H126.375C119.748 78 114.375 72.6274 114.375 66V50Z" fill="#FAFAFA" shape-rendering="crispEdges"/>
<path d="M142.375 59.89C142.256 59.7469 142.089 59.6519 141.905 59.6225C141.721 59.593 141.533 59.6312 141.375 59.73L134.375 64.87V65.09C134.476 65.078 134.578 65.0876 134.675 65.1181C134.772 65.1485 134.862 65.1992 134.938 65.2668C135.014 65.3343 135.075 65.4172 135.116 65.51C135.158 65.6027 135.18 65.7033 135.18 65.805C135.18 65.9067 135.158 66.0072 135.116 66.1C135.075 66.1928 135.014 66.2757 134.938 66.3432C134.862 66.4108 134.772 66.4615 134.675 66.4919C134.578 66.5224 134.476 66.532 134.375 66.52C134.537 66.5207 134.696 66.468 134.825 66.37L142.235 60.9C142.379 60.7789 142.474 60.6086 142.5 60.422C142.525 60.2353 142.481 60.0458 142.375 59.89Z" fill="#669DF6"/>
<path d="M134.375 66.52C134.2 66.4993 134.039 66.415 133.921 66.2832C133.804 66.1514 133.74 65.9813 133.74 65.805C133.74 65.6287 133.804 65.4585 133.921 65.3268C134.039 65.195 134.2 65.1107 134.375 65.09V64.87L127.375 59.73C127.218 59.6291 127.029 59.5897 126.844 59.6192C126.66 59.6487 126.493 59.7451 126.375 59.89C126.27 60.0458 126.227 60.2359 126.257 60.4217C126.287 60.6074 126.386 60.7749 126.535 60.89L133.945 66.36C134.071 66.4566 134.226 66.5093 134.385 66.51L134.375 66.52Z" fill="#AECBFA"/>
<path d="M134.375 64.3401C134.084 64.3401 133.8 64.4263 133.558 64.5878C133.317 64.7494 133.128 64.9789 133.017 65.2475C132.906 65.5162 132.877 65.8117 132.933 66.0969C132.99 66.382 133.13 66.644 133.336 66.8495C133.541 67.0551 133.803 67.1951 134.088 67.2518C134.373 67.3086 134.669 67.2795 134.938 67.1682C135.206 67.0569 135.436 66.8685 135.597 66.6268C135.759 66.385 135.845 66.1008 135.845 65.8101C135.845 65.4202 135.69 65.0463 135.414 64.7706C135.139 64.495 134.765 64.3401 134.375 64.3401ZM134.375 66.5201C134.232 66.5201 134.093 66.4776 133.974 66.398C133.855 66.3185 133.763 66.2054 133.709 66.0733C133.655 65.9411 133.641 65.7958 133.67 65.6559C133.698 65.516 133.768 65.3877 133.87 65.2874C133.971 65.1871 134.1 65.1194 134.241 65.0927C134.381 65.0661 134.526 65.0818 134.658 65.1378C134.789 65.1938 134.901 65.2877 134.979 65.4074C135.056 65.5271 135.097 65.6673 135.095 65.8101C135.095 65.9042 135.076 65.9973 135.04 66.0841C135.004 66.1709 134.951 66.2496 134.884 66.3157C134.817 66.3818 134.737 66.4339 134.65 66.4689C134.563 66.504 134.469 66.5214 134.375 66.5201Z" fill="#4285F4"/>
<path d="M128.375 52.1101C128.177 52.1075 127.988 52.0277 127.848 51.8876C127.707 51.7475 127.628 51.5582 127.625 51.3601V49.4801C127.613 49.3736 127.623 49.2658 127.655 49.1637C127.688 49.0615 127.741 48.9673 127.813 48.8874C127.884 48.8074 127.971 48.7434 128.069 48.6995C128.167 48.6557 128.273 48.6331 128.38 48.6331C128.487 48.6331 128.593 48.6557 128.691 48.6995C128.789 48.7434 128.876 48.8074 128.947 48.8874C129.019 48.9673 129.072 49.0615 129.105 49.1637C129.137 49.2658 129.147 49.3736 129.135 49.4801V51.3601C129.132 51.5599 129.051 51.7507 128.909 51.891C128.767 52.0314 128.575 52.1101 128.375 52.1101Z" fill="#AECBFA"/>
<path d="M128.355 58.76C128.775 58.76 129.115 58.4197 129.115 58C129.115 57.5803 128.775 57.24 128.355 57.24C127.935 57.24 127.595 57.5803 127.595 58C127.595 58.4197 127.935 58.76 128.355 58.76Z" fill="#AECBFA"/>
<path d="M128.355 56.55C128.775 56.55 129.115 56.2098 129.115 55.79C129.115 55.3703 128.775 55.03 128.355 55.03C127.935 55.03 127.595 55.3703 127.595 55.79C127.595 56.2098 127.935 56.55 128.355 56.55Z" fill="#AECBFA"/>
<path d="M128.355 54.3301C128.775 54.3301 129.115 53.9898 129.115 53.5701C129.115 53.1503 128.775 52.8101 128.355 52.8101C127.935 52.8101 127.595 53.1503 127.595 53.5701C127.595 53.9898 127.935 54.3301 128.355 54.3301Z" fill="#AECBFA"/>
<path d="M140.375 54.3099C140.175 54.3073 139.984 54.2261 139.844 54.0838C139.704 53.9416 139.625 53.7498 139.625 53.5499V51.6699C139.625 51.471 139.704 51.2802 139.845 51.1396C139.985 50.9989 140.176 50.9199 140.375 50.9199C140.574 50.9199 140.765 50.9989 140.905 51.1396C141.046 51.2802 141.125 51.471 141.125 51.6699V53.5499C141.126 53.6493 141.108 53.7479 141.071 53.84C141.034 53.9322 140.979 54.016 140.909 54.0867C140.839 54.1574 140.756 54.2136 140.664 54.2519C140.573 54.2902 140.474 54.3099 140.375 54.3099Z" fill="#4285F4"/>
<path d="M140.395 58.77C140.815 58.77 141.155 58.4297 141.155 58.01C141.155 57.5903 140.815 57.25 140.395 57.25C139.975 57.25 139.635 57.5903 139.635 58.01C139.635 58.4297 139.975 58.77 140.395 58.77Z" fill="#4285F4"/>
<path d="M140.395 56.52C140.815 56.52 141.155 56.1797 141.155 55.76C141.155 55.3403 140.815 55 140.395 55C139.975 55 139.635 55.3403 139.635 55.76C139.635 56.1797 139.975 56.52 140.395 56.52Z" fill="#4285F4"/>
<path d="M140.395 50.24C140.815 50.24 141.155 49.8997 141.155 49.48C141.155 49.0602 140.815 48.72 140.395 48.72C139.975 48.72 139.635 49.0602 139.635 49.48C139.635 49.8997 139.975 50.24 140.395 50.24Z" fill="#4285F4"/>
<path d="M134.375 61C134.177 60.9974 133.988 60.9175 133.848 60.7774C133.707 60.6373 133.628 60.4481 133.625 60.25V58.34C133.646 58.1547 133.735 57.9837 133.874 57.8597C134.014 57.7356 134.194 57.667 134.38 57.667C134.566 57.667 134.746 57.7356 134.886 57.8597C135.025 57.9837 135.114 58.1547 135.135 58.34V60.23C135.136 60.3306 135.118 60.4305 135.08 60.5239C135.042 60.6172 134.987 60.7022 134.916 60.7738C134.845 60.8455 134.761 60.9023 134.668 60.9412C134.575 60.98 134.476 61 134.375 61Z" fill="#669DF6"/>
<path d="M134.375 63.2099C134.795 63.2099 135.135 62.8697 135.135 62.4499C135.135 62.0302 134.795 61.6899 134.375 61.6899C133.955 61.6899 133.615 62.0302 133.615 62.4499C133.615 62.8697 133.955 63.2099 134.375 63.2099Z" fill="#669DF6"/>
<path d="M134.375 56.8999C134.795 56.8999 135.135 56.5596 135.135 56.1399C135.135 55.7201 134.795 55.3799 134.375 55.3799C133.955 55.3799 133.615 55.7201 133.615 56.1399C133.615 56.5596 133.955 56.8999 134.375 56.8999Z" fill="#669DF6"/>
<path d="M134.375 54.6799C134.795 54.6799 135.135 54.3396 135.135 53.9199C135.135 53.5002 134.795 53.1599 134.375 53.1599C133.955 53.1599 133.615 53.5002 133.615 53.9199C133.615 54.3396 133.955 54.6799 134.375 54.6799Z" fill="#669DF6"/>
<path d="M137.375 56.54C137.177 56.5374 136.988 56.4576 136.848 56.3175C136.707 56.1774 136.628 55.9881 136.625 55.79V53.91C136.613 53.8036 136.623 53.6957 136.655 53.5936C136.688 53.4914 136.741 53.3973 136.813 53.3173C136.884 53.2373 136.971 53.1733 137.069 53.1295C137.167 53.0856 137.273 53.063 137.38 53.063C137.487 53.063 137.593 53.0856 137.691 53.1295C137.789 53.1733 137.876 53.2373 137.947 53.3173C138.019 53.3973 138.072 53.4914 138.105 53.5936C138.137 53.6957 138.147 53.8036 138.135 53.91V55.79C138.132 55.9898 138.051 56.1806 137.909 56.321C137.767 56.4613 137.575 56.54 137.375 56.54Z" fill="#4285F4"/>
<path d="M137.385 52.4499C137.805 52.4499 138.145 52.1097 138.145 51.6899C138.145 51.2702 137.805 50.9299 137.385 50.9299C136.965 50.9299 136.625 51.2702 136.625 51.6899C136.625 52.1097 136.965 52.4499 137.385 52.4499Z" fill="#4285F4"/>
<path d="M137.385 60.9499C137.805 60.9499 138.145 60.6097 138.145 60.1899C138.145 59.7702 137.805 59.4299 137.385 59.4299C136.965 59.4299 136.625 59.7702 136.625 60.1899C136.625 60.6097 136.965 60.9499 137.385 60.9499Z" fill="#4285F4"/>
<path d="M137.385 58.73C137.805 58.73 138.145 58.3897 138.145 57.97C138.145 57.5502 137.805 57.21 137.385 57.21C136.965 57.21 136.625 57.5502 136.625 57.97C136.625 58.3897 136.965 58.73 137.385 58.73Z" fill="#4285F4"/>
<path d="M131.365 60.9499C131.785 60.9499 132.125 60.6097 132.125 60.1899C132.125 59.7702 131.785 59.4299 131.365 59.4299C130.945 59.4299 130.605 59.7702 130.605 60.1899C130.605 60.6097 130.945 60.9499 131.365 60.9499Z" fill="#AECBFA"/>
<path d="M131.365 54.6799C131.785 54.6799 132.125 54.3396 132.125 53.9199C132.125 53.5002 131.785 53.1599 131.365 53.1599C130.945 53.1599 130.605 53.5002 130.605 53.9199C130.605 54.3396 130.945 54.6799 131.365 54.6799Z" fill="#AECBFA"/>
<path d="M131.365 52.4499C131.785 52.4499 132.125 52.1097 132.125 51.6899C132.125 51.2702 131.785 50.9299 131.365 50.9299C130.945 50.9299 130.605 51.2702 130.605 51.6899C130.605 52.1097 130.945 52.4499 131.365 52.4499Z" fill="#AECBFA"/>
<path d="M131.375 58.7301C131.179 58.7302 130.99 58.6543 130.848 58.5182C130.706 58.3821 130.623 58.1964 130.615 58.0001V56.1001C130.615 55.9012 130.694 55.7104 130.835 55.5698C130.975 55.4291 131.166 55.3501 131.365 55.3501C131.564 55.3501 131.755 55.4291 131.895 55.5698C132.036 55.7104 132.115 55.9012 132.115 56.1001V58.0001C132.11 58.1938 132.03 58.378 131.892 58.5141C131.754 58.6502 131.569 58.7276 131.375 58.7301Z" fill="#AECBFA"/>
</g>
<g filter="url(#filter3_dd_95_1617)">
<path d="M170.375 50C170.375 43.3726 175.748 38 182.375 38H198.375C205.002 38 210.375 43.3726 210.375 50V66C210.375 72.6274 205.002 78 198.375 78H182.375C175.748 78 170.375 72.6274 170.375 66V50Z" fill="#FAFAFA" shape-rendering="crispEdges"/>
<path d="M187.24 48.0002H193.334L187.008 67.3186C186.943 67.5171 186.819 67.6896 186.654 67.8118C186.489 67.934 186.291 67.9997 186.088 67.9998H181.345C181.191 67.9998 181.039 67.962 180.902 67.8896C180.765 67.8171 180.647 67.7121 180.557 67.5831C180.467 67.4542 180.409 67.305 180.386 67.1481C180.363 66.9911 180.377 66.8307 180.426 66.6803L186.319 48.6814C186.384 48.4828 186.508 48.3103 186.673 48.188C186.839 48.0658 187.037 48.0003 187.24 48.0002Z" fill="url(#paint1_linear_95_1617)"/>
<path d="M196.095 60.9575H186.432C186.342 60.9574 186.254 60.9852 186.18 61.0373C186.106 61.0893 186.048 61.1632 186.015 61.2494C185.983 61.3355 185.976 61.4299 185.995 61.5202C186.015 61.6105 186.061 61.6926 186.127 61.7557L192.336 67.7292C192.517 67.903 192.755 67.9997 193.002 67.9996H198.473L196.095 60.9575Z" fill="#0078D4"/>
<path d="M187.24 48.0003C187.035 47.9994 186.834 48.0664 186.668 48.1913C186.502 48.3163 186.379 48.4927 186.318 48.6947L180.433 66.6639C180.381 66.8149 180.364 66.9767 180.385 67.1356C180.406 67.2945 180.464 67.4459 180.554 67.5769C180.643 67.708 180.763 67.8148 180.901 67.8884C181.039 67.962 181.192 68.0002 181.348 67.9998H186.213C186.394 67.9664 186.563 67.8841 186.704 67.7612C186.844 67.6383 186.95 67.4792 187.011 67.3003L188.184 63.7358L192.376 67.7653C192.551 67.9151 192.772 67.9979 193 67.9998H198.451L196.06 60.9577L189.09 60.9594L193.356 48.0003H187.24Z" fill="url(#paint2_linear_95_1617)"/>
<path d="M195.023 48.6805C194.958 48.4822 194.835 48.3099 194.67 48.1879C194.505 48.0658 194.307 48.0002 194.104 48.0002H187.313C187.516 48.0003 187.714 48.0659 187.879 48.1879C188.043 48.31 188.167 48.4822 188.232 48.6805L194.126 66.6801C194.175 66.8305 194.189 66.9909 194.166 67.1479C194.143 67.305 194.085 67.4541 193.995 67.5831C193.905 67.7121 193.787 67.8172 193.649 67.8897C193.512 67.9622 193.361 68 193.207 68H199.998C200.152 68 200.304 67.9621 200.441 67.8896C200.578 67.8171 200.696 67.712 200.786 67.583C200.876 67.454 200.935 67.3049 200.957 67.1479C200.98 66.9909 200.966 66.8305 200.917 66.6801L195.023 48.6805Z" fill="url(#paint3_linear_95_1617)"/>
</g>
<g filter="url(#filter4_dd_95_1617)">
<path d="M30.375 106C30.375 99.3726 35.7476 94 42.375 94H58.375C65.0024 94 70.375 99.3726 70.375 106V122C70.375 128.627 65.0024 134 58.375 134H42.375C35.7476 134 30.375 128.627 30.375 122V106Z" fill="#FAFAFA" shape-rendering="crispEdges"/>
<path d="M54.9203 105H58.5566V108.636H54.9203V105Z" fill="#FBFBF3"/>
<path d="M56.7382 105H60.3745V108.636H56.7382V105Z" fill="#F7CE47"/>
<path d="M40.375 105H44.0113V108.636H40.375V105ZM40.375 108.636H44.0113V112.273H40.375V108.636ZM40.375 112.273H44.0113V115.909H40.375V112.273ZM40.375 115.909H44.0113V119.545H40.375V115.909Z" fill="#FBFBF3"/>
<path d="M40.375 119.546H44.0113V123.182H40.375V119.546Z" fill="#FBFBF3"/>
<path d="M42.1934 105H45.8297V108.636H42.1934V105Z" fill="#F7CE47"/>
<path d="M56.7387 108.636H60.375V112.273H56.7387V108.636ZM42.1934 108.636H45.8297V112.273H42.1934V108.636Z" fill="#F1A63C"/>
<path d="M51.2841 108.636H54.9204V112.273H51.2841V108.636Z" fill="#FBFBF3"/>
<path d="M53.1023 108.636H56.7386V112.273H53.1023V108.636ZM45.8295 108.636H49.4658V112.273H45.8295V108.636Z" fill="#F1A63C"/>
<path d="M49.4658 112.273H53.1021V115.909H49.4658V112.273ZM53.1021 112.273H56.7386V115.909H53.1021V112.273ZM45.8295 112.273H49.4658V115.909H45.8295V112.273Z" fill="#ED7930"/>
<path d="M47.6474 115.909H51.2837V119.545H47.6474V115.909Z" fill="#FBFBF3"/>
<path d="M49.4658 115.909H53.102V119.545H49.4658V115.909Z" fill="#E95829"/>
<path d="M56.7387 112.273H60.375V115.909H56.7387V112.273ZM42.1934 112.273H45.8297V115.909H42.1934V112.273Z" fill="#ED7930"/>
<path d="M54.9203 115.909H58.5566V119.545H54.9203V115.909Z" fill="#FBFBF3"/>
<path d="M56.7382 115.909H60.3745V119.545H56.7382V115.909Z" fill="#E95829"/>
<path d="M54.9203 119.546H58.5566V123.182H54.9203V119.546Z" fill="#FBFBF3"/>
<path d="M42.1934 115.909H45.8297V119.545H42.1934V115.909Z" fill="#E95829"/>
<path d="M56.7387 119.546H60.375V123.182H56.7387V119.546ZM42.1934 119.546H45.8297V123.182H42.1934V119.546Z" fill="#E93326"/>
</g>
<g filter="url(#filter5_dd_95_1617)">
<path d="M86.375 106C86.375 99.3726 91.7476 94 98.375 94H114.375C121.002 94 126.375 99.3726 126.375 106V122C126.375 128.627 121.002 134 114.375 134H98.375C91.7476 134 86.375 128.627 86.375 122V106Z" fill="#FAFAFA" shape-rendering="crispEdges"/>
<path d="M110.698 107H107.661L113.197 121H116.233L110.698 107ZM101.91 107L96.375 121H99.4765L100.618 118.071H106.412L107.532 121H110.633L105.098 107H101.91ZM101.609 115.465L103.504 110.554L105.4 115.465H101.609Z" fill="#181818"/>
</g>
<g filter="url(#filter6_dd_95_1617)">
<path d="M142.375 106C142.375 99.3726 147.748 94 154.375 94H170.375C177.002 94 182.375 99.3726 182.375 106V122C182.375 128.627 177.002 134 170.375 134H154.375C147.748 134 142.375 128.627 142.375 122V106Z" fill="#FAFAFA" shape-rendering="crispEdges"/>
<path d="M158.122 107H158.102L158.077 109.179H158.095C159.524 109.179 160.633 110.31 163.045 114.384L163.191 114.632L163.201 114.648L164.551 112.617L164.541 112.601C164.246 112.118 163.941 111.641 163.626 111.171C163.316 110.707 162.989 110.254 162.647 109.813C161.052 107.777 159.719 107 158.122 107Z" fill="url(#paint4_linear_95_1617)"/>
<path d="M158.102 107C156.5 107.008 155.081 108.048 154.058 109.642C154.056 109.646 154.053 109.651 154.05 109.656L155.928 110.682L155.937 110.667C156.536 109.765 157.279 109.189 158.077 109.18H158.095L158.122 107H158.102Z" fill="url(#paint5_linear_95_1617)"/>
<path d="M154.057 109.642L154.048 109.656C153.375 110.706 152.873 111.996 152.603 113.387L152.599 113.405L154.711 113.905L154.714 113.887C154.939 112.664 155.369 111.53 155.927 110.682L155.937 110.668L154.057 109.642Z" fill="url(#paint6_linear_95_1617)"/>
<path d="M154.714 113.887L152.603 113.387L152.599 113.405C152.452 114.17 152.377 114.948 152.375 115.727V115.746L154.54 115.94V115.921C154.532 115.239 154.591 114.558 154.715 113.888L154.714 113.887Z" fill="url(#paint7_linear_95_1617)"/>
<path d="M154.606 116.614C154.567 116.39 154.545 116.164 154.54 115.937V115.918L152.375 115.723V115.743C152.373 116.205 152.413 116.666 152.497 117.12L154.609 116.633C154.608 116.626 154.607 116.62 154.606 116.614Z" fill="url(#paint8_linear_95_1617)"/>
<path d="M155.1 117.742C154.863 117.483 154.697 117.112 154.609 116.635L154.606 116.617L152.493 117.105L152.497 117.122C152.657 117.964 152.97 118.664 153.418 119.195L153.43 119.209L155.112 117.755C155.107 117.751 155.104 117.746 155.1 117.742Z" fill="url(#paint9_linear_95_1617)"/>
<path d="M161.358 111.712C160.085 113.67 159.313 114.899 159.313 114.899C157.617 117.566 157.031 118.163 156.087 118.163C155.902 118.168 155.718 118.133 155.547 118.06C155.376 117.987 155.224 117.878 155.099 117.74L153.418 119.193L153.43 119.207C154.05 119.932 154.923 120.333 156.005 120.333C157.641 120.333 158.817 119.56 160.908 115.892L162.38 113.283C162.053 112.75 161.713 112.226 161.358 111.712Z" fill="#0082FB"/>
<path d="M163.627 108.622L163.613 108.635C163.28 108.993 162.958 109.392 162.647 109.815C162.962 110.218 163.287 110.668 163.626 111.173C164.026 110.554 164.399 110.053 164.765 109.668L164.778 109.654L163.627 108.622Z" fill="url(#paint10_linear_95_1617)"/>
<path d="M169.807 108.427C168.919 107.527 167.861 107 166.729 107C165.536 107 164.532 107.656 163.627 108.62L163.613 108.633L164.765 109.667L164.778 109.652C165.374 109.03 165.952 108.719 166.592 108.719C167.28 108.719 167.925 109.044 168.483 109.615L168.496 109.628L169.82 108.441L169.807 108.427Z" fill="#0082FB"/>
<path d="M172.373 115.437C172.323 112.548 171.315 109.966 169.82 108.441L169.807 108.427L168.483 109.614L168.496 109.627C169.621 110.787 170.393 112.944 170.463 115.437V115.456H172.373V115.437Z" fill="url(#paint11_linear_95_1617)"/>
<path d="M172.373 115.458V115.439H170.463V115.458C170.467 115.574 170.468 115.693 170.468 115.811C170.468 116.49 170.367 117.039 170.162 117.436L170.152 117.454L171.576 118.939L171.587 118.923C172.103 118.123 172.375 117.012 172.375 115.664C172.375 115.595 172.375 115.527 172.373 115.458Z" fill="url(#paint12_linear_95_1617)"/>
<path d="M170.162 117.433L170.152 117.45C169.974 117.785 169.72 118.008 169.388 118.106L170.037 120.158C170.162 120.115 170.283 120.065 170.402 120.006C170.863 119.773 171.255 119.423 171.54 118.991L171.577 118.937L171.587 118.92L170.162 117.433Z" fill="url(#paint13_linear_95_1617)"/>
<path d="M168.975 118.161C168.757 118.161 168.565 118.128 168.377 118.044L167.712 120.146C168.086 120.273 168.484 120.331 168.928 120.331C169.338 120.331 169.714 120.27 170.055 120.152L169.405 118.1C169.266 118.142 169.122 118.163 168.975 118.161Z" fill="url(#paint14_linear_95_1617)"/>
<path d="M167.644 117.445L167.632 117.431L166.102 119.026L166.116 119.04C166.647 119.608 167.154 119.961 167.73 120.154L168.394 118.054C168.152 117.95 167.917 117.76 167.644 117.445Z" fill="url(#paint15_linear_95_1617)"/>
<path d="M167.632 117.429C167.174 116.894 166.606 116.002 165.713 114.562L164.55 112.616L164.541 112.599L163.191 114.631L163.201 114.647L164.025 116.037C164.824 117.379 165.475 118.349 166.102 119.025L166.116 119.038L167.644 117.443C167.64 117.439 167.636 117.434 167.632 117.429Z" fill="url(#paint16_linear_95_1617)"/>
</g>
<defs>
<filter id="filter0_dd_95_1617" x="0.375" y="37" width="44" height="45" filterUnits="userSpaceOnUse" color-interpolation-filters="sRGB">
<feFlood flood-opacity="0" result="BackgroundImageFix"/>
<feColorMatrix in="SourceAlpha" type="matrix" values="0 0 0 0 0 0 0 0 0 0 0 0 0 0 0 0 0 0 127 0" result="hardAlpha"/>
<feOffset dy="2"/>
<feGaussianBlur stdDeviation="1"/>
<feComposite in2="hardAlpha" operator="out"/>
<feColorMatrix type="matrix" values="0 0 0 0 0 0 0 0 0 0 0 0 0 0 0 0 0 0 0.04 0"/>
<feBlend mode="normal" in2="BackgroundImageFix" result="effect1_dropShadow_95_1617"/>
<feColorMatrix in="SourceAlpha" type="matrix" values="0 0 0 0 0 0 0 0 0 0 0 0 0 0 0 0 0 0 127 0" result="hardAlpha"/>
<feMorphology radius="1" operator="dilate" in="SourceAlpha" result="effect2_dropShadow_95_1617"/>
<feOffset/>
<feComposite in2="hardAlpha" operator="out"/>
<feColorMatrix type="matrix" values="0 0 0 0 0 0 0 0 0 0 0 0 0 0 0 0 0 0 0.08 0"/>
<feBlend mode="normal" in2="effect1_dropShadow_95_1617" result="effect2_dropShadow_95_1617"/>
<feBlend mode="normal" in="SourceGraphic" in2="effect2_dropShadow_95_1617" result="shape"/>
</filter>
<filter id="filter1_dd_95_1617" x="56.375" y="37" width="44" height="45" filterUnits="userSpaceOnUse" color-interpolation-filters="sRGB">
<feFlood flood-opacity="0" result="BackgroundImageFix"/>
<feColorMatrix in="SourceAlpha" type="matrix" values="0 0 0 0 0 0 0 0 0 0 0 0 0 0 0 0 0 0 127 0" result="hardAlpha"/>
<feOffset dy="2"/>
<feGaussianBlur stdDeviation="1"/>
<feComposite in2="hardAlpha" operator="out"/>
<feColorMatrix type="matrix" values="0 0 0 0 0 0 0 0 0 0 0 0 0 0 0 0 0 0 0.04 0"/>
<feBlend mode="normal" in2="BackgroundImageFix" result="effect1_dropShadow_95_1617"/>
<feColorMatrix in="SourceAlpha" type="matrix" values="0 0 0 0 0 0 0 0 0 0 0 0 0 0 0 0 0 0 127 0" result="hardAlpha"/>
<feMorphology radius="1" operator="dilate" in="SourceAlpha" result="effect2_dropShadow_95_1617"/>
<feOffset/>
<feComposite in2="hardAlpha" operator="out"/>
<feColorMatrix type="matrix" values="0 0 0 0 0 0 0 0 0 0 0 0 0 0 0 0 0 0 0.08 0"/>
<feBlend mode="normal" in2="effect1_dropShadow_95_1617" result="effect2_dropShadow_95_1617"/>
<feBlend mode="normal" in="SourceGraphic" in2="effect2_dropShadow_95_1617" result="shape"/>
</filter>
<filter id="filter2_dd_95_1617" x="112.375" y="37" width="44" height="45" filterUnits="userSpaceOnUse" color-interpolation-filters="sRGB">
<feFlood flood-opacity="0" result="BackgroundImageFix"/>
<feColorMatrix in="SourceAlpha" type="matrix" values="0 0 0 0 0 0 0 0 0 0 0 0 0 0 0 0 0 0 127 0" result="hardAlpha"/>
<feOffset dy="2"/>
<feGaussianBlur stdDeviation="1"/>
<feComposite in2="hardAlpha" operator="out"/>
<feColorMatrix type="matrix" values="0 0 0 0 0 0 0 0 0 0 0 0 0 0 0 0 0 0 0.04 0"/>
<feBlend mode="normal" in2="BackgroundImageFix" result="effect1_dropShadow_95_1617"/>
<feColorMatrix in="SourceAlpha" type="matrix" values="0 0 0 0 0 0 0 0 0 0 0 0 0 0 0 0 0 0 127 0" result="hardAlpha"/>
<feMorphology radius="1" operator="dilate" in="SourceAlpha" result="effect2_dropShadow_95_1617"/>
<feOffset/>
<feComposite in2="hardAlpha" operator="out"/>
<feColorMatrix type="matrix" values="0 0 0 0 0 0 0 0 0 0 0 0 0 0 0 0 0 0 0.08 0"/>
<feBlend mode="normal" in2="effect1_dropShadow_95_1617" result="effect2_dropShadow_95_1617"/>
<feBlend mode="normal" in="SourceGraphic" in2="effect2_dropShadow_95_1617" result="shape"/>
</filter>
<filter id="filter3_dd_95_1617" x="168.375" y="37" width="44" height="45" filterUnits="userSpaceOnUse" color-interpolation-filters="sRGB">
<feFlood flood-opacity="0" result="BackgroundImageFix"/>
<feColorMatrix in="SourceAlpha" type="matrix" values="0 0 0 0 0 0 0 0 0 0 0 0 0 0 0 0 0 0 127 0" result="hardAlpha"/>
<feOffset dy="2"/>
<feGaussianBlur stdDeviation="1"/>
<feComposite in2="hardAlpha" operator="out"/>
<feColorMatrix type="matrix" values="0 0 0 0 0 0 0 0 0 0 0 0 0 0 0 0 0 0 0.04 0"/>
<feBlend mode="normal" in2="BackgroundImageFix" result="effect1_dropShadow_95_1617"/>
<feColorMatrix in="SourceAlpha" type="matrix" values="0 0 0 0 0 0 0 0 0 0 0 0 0 0 0 0 0 0 127 0" result="hardAlpha"/>
<feMorphology radius="1" operator="dilate" in="SourceAlpha" result="effect2_dropShadow_95_1617"/>
<feOffset/>
<feComposite in2="hardAlpha" operator="out"/>
<feColorMatrix type="matrix" values="0 0 0 0 0 0 0 0 0 0 0 0 0 0 0 0 0 0 0.08 0"/>
<feBlend mode="normal" in2="effect1_dropShadow_95_1617" result="effect2_dropShadow_95_1617"/>
<feBlend mode="normal" in="SourceGraphic" in2="effect2_dropShadow_95_1617" result="shape"/>
</filter>
<filter id="filter4_dd_95_1617" x="28.375" y="93" width="44" height="45" filterUnits="userSpaceOnUse" color-interpolation-filters="sRGB">
<feFlood flood-opacity="0" result="BackgroundImageFix"/>
<feColorMatrix in="SourceAlpha" type="matrix" values="0 0 0 0 0 0 0 0 0 0 0 0 0 0 0 0 0 0 127 0" result="hardAlpha"/>
<feOffset dy="2"/>
<feGaussianBlur stdDeviation="1"/>
<feComposite in2="hardAlpha" operator="out"/>
<feColorMatrix type="matrix" values="0 0 0 0 0 0 0 0 0 0 0 0 0 0 0 0 0 0 0.04 0"/>
<feBlend mode="normal" in2="BackgroundImageFix" result="effect1_dropShadow_95_1617"/>
<feColorMatrix in="SourceAlpha" type="matrix" values="0 0 0 0 0 0 0 0 0 0 0 0 0 0 0 0 0 0 127 0" result="hardAlpha"/>
<feMorphology radius="1" operator="dilate" in="SourceAlpha" result="effect2_dropShadow_95_1617"/>
<feOffset/>
<feComposite in2="hardAlpha" operator="out"/>
<feColorMatrix type="matrix" values="0 0 0 0 0 0 0 0 0 0 0 0 0 0 0 0 0 0 0.08 0"/>
<feBlend mode="normal" in2="effect1_dropShadow_95_1617" result="effect2_dropShadow_95_1617"/>
<feBlend mode="normal" in="SourceGraphic" in2="effect2_dropShadow_95_1617" result="shape"/>
</filter>
<filter id="filter5_dd_95_1617" x="84.375" y="93" width="44" height="45" filterUnits="userSpaceOnUse" color-interpolation-filters="sRGB">
<feFlood flood-opacity="0" result="BackgroundImageFix"/>
<feColorMatrix in="SourceAlpha" type="matrix" values="0 0 0 0 0 0 0 0 0 0 0 0 0 0 0 0 0 0 127 0" result="hardAlpha"/>
<feOffset dy="2"/>
<feGaussianBlur stdDeviation="1"/>
<feComposite in2="hardAlpha" operator="out"/>
<feColorMatrix type="matrix" values="0 0 0 0 0 0 0 0 0 0 0 0 0 0 0 0 0 0 0.04 0"/>
<feBlend mode="normal" in2="BackgroundImageFix" result="effect1_dropShadow_95_1617"/>
<feColorMatrix in="SourceAlpha" type="matrix" values="0 0 0 0 0 0 0 0 0 0 0 0 0 0 0 0 0 0 127 0" result="hardAlpha"/>
<feMorphology radius="1" operator="dilate" in="SourceAlpha" result="effect2_dropShadow_95_1617"/>
<feOffset/>
<feComposite in2="hardAlpha" operator="out"/>
<feColorMatrix type="matrix" values="0 0 0 0 0 0 0 0 0 0 0 0 0 0 0 0 0 0 0.08 0"/>
<feBlend mode="normal" in2="effect1_dropShadow_95_1617" result="effect2_dropShadow_95_1617"/>
<feBlend mode="normal" in="SourceGraphic" in2="effect2_dropShadow_95_1617" result="shape"/>
</filter>
<filter id="filter6_dd_95_1617" x="140.375" y="93" width="44" height="45" filterUnits="userSpaceOnUse" color-interpolation-filters="sRGB">
<feFlood flood-opacity="0" result="BackgroundImageFix"/>
<feColorMatrix in="SourceAlpha" type="matrix" values="0 0 0 0 0 0 0 0 0 0 0 0 0 0 0 0 0 0 127 0" result="hardAlpha"/>
<feOffset dy="2"/>
<feGaussianBlur stdDeviation="1"/>
<feComposite in2="hardAlpha" operator="out"/>
<feColorMatrix type="matrix" values="0 0 0 0 0 0 0 0 0 0 0 0 0 0 0 0 0 0 0.04 0"/>
<feBlend mode="normal" in2="BackgroundImageFix" result="effect1_dropShadow_95_1617"/>
<feColorMatrix in="SourceAlpha" type="matrix" values="0 0 0 0 0 0 0 0 0 0 0 0 0 0 0 0 0 0 127 0" result="hardAlpha"/>
<feMorphology radius="1" operator="dilate" in="SourceAlpha" result="effect2_dropShadow_95_1617"/>
<feOffset/>
<feComposite in2="hardAlpha" operator="out"/>
<feColorMatrix type="matrix" values="0 0 0 0 0 0 0 0 0 0 0 0 0 0 0 0 0 0 0.08 0"/>
<feBlend mode="normal" in2="effect1_dropShadow_95_1617" result="effect2_dropShadow_95_1617"/>
<feBlend mode="normal" in="SourceGraphic" in2="effect2_dropShadow_95_1617" result="shape"/>
</filter>
<linearGradient id="paint0_linear_95_1617" x1="1509.37" y1="426.192" x2="379.234" y2="1505.03" gradientUnits="userSpaceOnUse">
<stop stop-color="#6350FB"/>
<stop offset="0.5" stop-color="#3D8FFF"/>
<stop offset="1" stop-color="#9AD8F8"/>
</linearGradient>
<linearGradient id="paint1_linear_95_1617" x1="189.461" y1="49.4823" x2="182.781" y2="68.6294" gradientUnits="userSpaceOnUse">
<stop stop-color="#114A8B"/>
<stop offset="1" stop-color="#0669BC"/>
</linearGradient>
<linearGradient id="paint2_linear_95_1617" x1="191.438" y1="58.4626" x2="189.965" y2="58.9457" gradientUnits="userSpaceOnUse">
<stop stop-opacity="0.3"/>
<stop offset="0.071" stop-opacity="0.2"/>
<stop offset="0.321" stop-opacity="0.1"/>
<stop offset="0.623" stop-opacity="0.05"/>
<stop offset="1" stop-opacity="0"/>
</linearGradient>
<linearGradient id="paint3_linear_95_1617" x1="190.633" y1="48.9202" x2="197.956" y2="67.8501" gradientUnits="userSpaceOnUse">
<stop stop-color="#3CCBF4"/>
<stop offset="1" stop-color="#2892DF"/>
</linearGradient>
<linearGradient id="paint4_linear_95_1617" x1="649.444" y1="789.22" x2="247.976" y2="261.46" gradientUnits="userSpaceOnUse">
<stop offset="0.0006" stop-color="#0867DF"/>
<stop offset="0.4539" stop-color="#0668E1"/>
<stop offset="0.8591" stop-color="#0064E0"/>
</linearGradient>
<linearGradient id="paint5_linear_95_1617" x1="242.283" y1="386.341" x2="528.738" y2="168.319" gradientUnits="userSpaceOnUse">
<stop offset="0.1323" stop-color="#0064DF"/>
<stop offset="0.9988" stop-color="#0064E0"/>
</linearGradient>
<linearGradient id="paint6_linear_95_1617" x1="280.301" y1="489.618" x2="397.084" y2="194.75" gradientUnits="userSpaceOnUse">
<stop offset="0.0147" stop-color="#0072EC"/>
<stop offset="0.6881" stop-color="#0064DF"/>
</linearGradient>
<linearGradient id="paint7_linear_95_1617" x1="262.429" y1="343.671" x2="276.676" y2="153.759" gradientUnits="userSpaceOnUse">
<stop offset="0.0731" stop-color="#007CF6"/>
<stop offset="0.9943" stop-color="#0072EC"/>
</linearGradient>
<linearGradient id="paint8_linear_95_1617" x1="268.903" y1="197.15" x2="264.808" y2="166.588" gradientUnits="userSpaceOnUse">
<stop offset="0.0731" stop-color="#007FF9"/>
<stop offset="1" stop-color="#007CF6"/>
</linearGradient>
<linearGradient id="paint9_linear_95_1617" x1="251.175" y1="149.018" x2="313.672" y2="282.004" gradientUnits="userSpaceOnUse">
<stop offset="0.0731" stop-color="#007FF9"/>
<stop offset="1" stop-color="#0082FB"/>
</linearGradient>
<linearGradient id="paint10_linear_95_1617" x1="236.845" y1="284.383" x2="312.213" y2="179.838" gradientUnits="userSpaceOnUse">
<stop offset="0.2799" stop-color="#007FF8"/>
<stop offset="0.9141" stop-color="#0082FB"/>
</linearGradient>
<linearGradient id="paint11_linear_95_1617" x1="338.717" y1="152.249" x2="506.124" y2="770.038" gradientUnits="userSpaceOnUse">
<stop stop-color="#0082FB"/>
<stop offset="0.9995" stop-color="#0081FA"/>
</linearGradient>
<linearGradient id="paint12_linear_95_1617" x1="303.624" y1="131.753" x2="205.409" y2="330.881" gradientUnits="userSpaceOnUse">
<stop offset="0.0619" stop-color="#0081FA"/>
<stop offset="1" stop-color="#0080F9"/>
</linearGradient>
<linearGradient id="paint13_linear_95_1617" x1="235.958" y1="279.03" x2="315.205" y2="224.887" gradientUnits="userSpaceOnUse">
<stop stop-color="#027AF3"/>
<stop offset="1" stop-color="#0080F9"/>
</linearGradient>
<linearGradient id="paint14_linear_95_1617" x1="215.593" y1="232.379" x2="360.126" y2="232.379" gradientUnits="userSpaceOnUse">
<stop stop-color="#0377EF"/>
<stop offset="0.9994" stop-color="#0279F1"/>
</linearGradient>
<linearGradient id="paint15_linear_95_1617" x1="258.463" y1="213.558" x2="339.839" y2="261.598" gradientUnits="userSpaceOnUse">
<stop offset="0.0019" stop-color="#0471E9"/>
<stop offset="1" stop-color="#0377EF"/>
</linearGradient>
<linearGradient id="paint16_linear_95_1617" x1="306.828" y1="239.572" x2="572.639" y2="574.799" gradientUnits="userSpaceOnUse">
<stop offset="0.2765" stop-color="#0867DF"/>
<stop offset="1" stop-color="#0471E9"/>
</linearGradient>
</defs>
</svg>
