<svg width="212" height="156" viewBox="0 0 212 156" fill="none" xmlns="http://www.w3.org/2000/svg">
<path d="M2.758 9.67073V8.62673L4.81 7.31273V7.20473H1.246V6.50273H5.458V7.65473L3.406 8.96873V9.07673H3.766C4.006 9.07673 4.237 9.11573 4.459 9.19373C4.681 9.27173 4.876 9.38573 5.044 9.53573C5.218 9.68573 5.356 9.87173 5.458 10.0937C5.566 10.3097 5.62 10.5617 5.62 10.8497V11.0117C5.62 11.2817 5.566 11.5337 5.458 11.7677C5.35 12.0017 5.2 12.2057 5.008 12.3797C4.816 12.5477 4.588 12.6827 4.324 12.7847C4.066 12.8807 3.784 12.9287 3.478 12.9287C3.124 12.9287 2.806 12.8747 2.524 12.7667C2.242 12.6587 2.002 12.5117 1.804 12.3257C1.606 12.1337 1.453 11.9117 1.345 11.6597C1.243 11.4017 1.192 11.1287 1.192 10.8407V10.3547H1.948V10.7867C1.948 11.0147 1.984 11.2187 2.056 11.3987C2.134 11.5727 2.239 11.7227 2.371 11.8487C2.509 11.9687 2.671 12.0617 2.857 12.1277C3.043 12.1937 3.244 12.2267 3.46 12.2267C3.658 12.2267 3.841 12.1937 4.009 12.1277C4.183 12.0617 4.333 11.9717 4.459 11.8577C4.585 11.7377 4.684 11.5997 4.756 11.4437C4.828 11.2817 4.864 11.1107 4.864 10.9307V10.8767C4.864 10.4987 4.744 10.2047 4.504 9.99473C4.264 9.77873 3.964 9.67073 3.604 9.67073H2.758ZM6.67574 8.95073C6.67574 8.13473 6.87074 7.50173 7.26074 7.05173C7.65074 6.60173 8.19374 6.37673 8.88974 6.37673C9.58574 6.37673 10.1287 6.60173 10.5187 7.05173C10.9087 7.50173 11.1037 8.13473 11.1037 8.95073V10.3547C11.1037 11.1947 10.9087 11.8337 10.5187 12.2717C10.1287 12.7097 9.58574 12.9287 8.88974 12.9287C8.19374 12.9287 7.65074 12.7097 7.26074 12.2717C6.87074 11.8337 6.67574 11.1947 6.67574 10.3547V8.95073ZM8.88974 12.2447C9.37574 12.2447 9.73874 12.0767 9.97874 11.7407C10.2247 11.3987 10.3477 10.9187 10.3477 10.3007V9.00473C10.3477 8.71673 10.3177 8.45573 10.2577 8.22173C10.1977 7.98173 10.1047 7.77773 9.97874 7.60973C9.85874 7.43573 9.70574 7.30073 9.51974 7.20473C9.33974 7.10873 9.12974 7.06073 8.88974 7.06073C8.64374 7.06073 8.43074 7.10873 8.25074 7.20473C8.07074 7.30073 7.91774 7.43573 7.79174 7.60973C7.67174 7.77773 7.58174 7.98173 7.52174 8.22173C7.46174 8.45573 7.43174 8.71673 7.43174 9.00473V10.3007C7.43174 10.9187 7.55174 11.3987 7.79174 11.7407C8.03774 12.0767 8.40374 12.2447 8.88974 12.2447ZM8.31374 9.65273C8.31374 9.49673 8.37074 9.36173 8.48474 9.24773C8.59874 9.13373 8.73374 9.07673 8.88974 9.07673C9.04574 9.07673 9.18074 9.13373 9.29474 9.24773C9.40874 9.36173 9.46574 9.49673 9.46574 9.65273C9.46574 9.80873 9.40874 9.94373 9.29474 10.0577C9.18074 10.1717 9.04574 10.2287 8.88974 10.2287C8.73374 10.2287 8.59874 10.1717 8.48474 10.0577C8.37074 9.94373 8.31374 9.80873 8.31374 9.65273ZM12.1865 8.95073C12.1865 8.13473 12.3815 7.50173 12.7715 7.05173C13.1615 6.60173 13.7045 6.37673 14.4005 6.37673C15.0965 6.37673 15.6395 6.60173 16.0295 7.05173C16.4195 7.50173 16.6145 8.13473 16.6145 8.95073V10.3547C16.6145 11.1947 16.4195 11.8337 16.0295 12.2717C15.6395 12.7097 15.0965 12.9287 14.4005 12.9287C13.7045 12.9287 13.1615 12.7097 12.7715 12.2717C12.3815 11.8337 12.1865 11.1947 12.1865 10.3547V8.95073ZM14.4005 12.2447C14.8865 12.2447 15.2495 12.0767 15.4895 11.7407C15.7355 11.3987 15.8585 10.9187 15.8585 10.3007V9.00473C15.8585 8.71673 15.8285 8.45573 15.7685 8.22173C15.7085 7.98173 15.6155 7.77773 15.4895 7.60973C15.3695 7.43573 15.2165 7.30073 15.0305 7.20473C14.8505 7.10873 14.6405 7.06073 14.4005 7.06073C14.1545 7.06073 13.9415 7.10873 13.7615 7.20473C13.5815 7.30073 13.4285 7.43573 13.3025 7.60973C13.1825 7.77773 13.0925 7.98173 13.0325 8.22173C12.9725 8.45573 12.9425 8.71673 12.9425 9.00473V10.3007C12.9425 10.9187 13.0625 11.3987 13.3025 11.7407C13.5485 12.0767 13.9145 12.2447 14.4005 12.2447ZM13.8245 9.65273C13.8245 9.49673 13.8815 9.36173 13.9955 9.24773C14.1095 9.13373 14.2445 9.07673 14.4005 9.07673C14.5565 9.07673 14.6915 9.13373 14.8055 9.24773C14.9195 9.36173 14.9765 9.49673 14.9765 9.65273C14.9765 9.80873 14.9195 9.94373 14.8055 10.0577C14.6915 10.1717 14.5565 10.2287 14.4005 10.2287C14.2445 10.2287 14.1095 10.1717 13.9955 10.0577C13.8815 9.94373 13.8245 9.80873 13.8245 9.65273ZM19.0922 10.1927H19.2452L20.9462 8.33873H21.8102V8.39273L19.9562 10.4357V10.5977L22.0262 12.7487V12.8027H21.1622L19.2632 10.8407H19.0922V12.8027H18.3902V6.50273H19.0922V10.1927Z" fill="#727272"/>
<path d="M27.625 9.30273L211.625 9.30272" stroke="url(#paint0_linear_104_1850)"/>
<path d="M5.521 80.798V81.5H1.255V80.42C1.255 80.132 1.303 79.883 1.399 79.673C1.495 79.457 1.63 79.274 1.804 79.124C1.984 78.968 2.2 78.839 2.452 78.737C2.704 78.635 2.989 78.548 3.307 78.476C3.841 78.356 4.225 78.185 4.459 77.963C4.699 77.741 4.819 77.468 4.819 77.144V77.09C4.819 76.928 4.792 76.769 4.738 76.613C4.684 76.457 4.6 76.316 4.486 76.19C4.372 76.064 4.225 75.965 4.045 75.893C3.871 75.815 3.661 75.776 3.415 75.776C2.953 75.776 2.593 75.917 2.335 76.199C2.083 76.481 1.957 76.856 1.957 77.324V77.72H1.201V77.27C1.201 76.982 1.249 76.706 1.345 76.442C1.441 76.178 1.582 75.944 1.768 75.74C1.954 75.536 2.185 75.374 2.461 75.254C2.737 75.134 3.055 75.074 3.415 75.074C3.781 75.074 4.099 75.131 4.369 75.245C4.639 75.353 4.864 75.5 5.044 75.686C5.224 75.866 5.356 76.073 5.44 76.307C5.53 76.535 5.575 76.769 5.575 77.009V77.171C5.575 77.651 5.425 78.062 5.125 78.404C4.825 78.74 4.345 78.98 3.685 79.124C3.109 79.25 2.686 79.418 2.416 79.628C2.146 79.832 2.011 80.132 2.011 80.528V80.798H5.521ZM6.67574 77.648C6.67574 76.832 6.87074 76.199 7.26074 75.749C7.65074 75.299 8.19374 75.074 8.88974 75.074C9.58574 75.074 10.1287 75.299 10.5187 75.749C10.9087 76.199 11.1037 76.832 11.1037 77.648V79.052C11.1037 79.892 10.9087 80.531 10.5187 80.969C10.1287 81.407 9.58574 81.626 8.88974 81.626C8.19374 81.626 7.65074 81.407 7.26074 80.969C6.87074 80.531 6.67574 79.892 6.67574 79.052V77.648ZM8.88974 80.942C9.37574 80.942 9.73874 80.774 9.97874 80.438C10.2247 80.096 10.3477 79.616 10.3477 78.998V77.702C10.3477 77.414 10.3177 77.153 10.2577 76.919C10.1977 76.679 10.1047 76.475 9.97874 76.307C9.85874 76.133 9.70574 75.998 9.51974 75.902C9.33974 75.806 9.12974 75.758 8.88974 75.758C8.64374 75.758 8.43074 75.806 8.25074 75.902C8.07074 75.998 7.91774 76.133 7.79174 76.307C7.67174 76.475 7.58174 76.679 7.52174 76.919C7.46174 77.153 7.43174 77.414 7.43174 77.702V78.998C7.43174 79.616 7.55174 80.096 7.79174 80.438C8.03774 80.774 8.40374 80.942 8.88974 80.942ZM8.31374 78.35C8.31374 78.194 8.37074 78.059 8.48474 77.945C8.59874 77.831 8.73374 77.774 8.88974 77.774C9.04574 77.774 9.18074 77.831 9.29474 77.945C9.40874 78.059 9.46574 78.194 9.46574 78.35C9.46574 78.506 9.40874 78.641 9.29474 78.755C9.18074 78.869 9.04574 78.926 8.88974 78.926C8.73374 78.926 8.59874 78.869 8.48474 78.755C8.37074 78.641 8.31374 78.506 8.31374 78.35ZM12.1865 77.648C12.1865 76.832 12.3815 76.199 12.7715 75.749C13.1615 75.299 13.7045 75.074 14.4005 75.074C15.0965 75.074 15.6395 75.299 16.0295 75.749C16.4195 76.199 16.6145 76.832 16.6145 77.648V79.052C16.6145 79.892 16.4195 80.531 16.0295 80.969C15.6395 81.407 15.0965 81.626 14.4005 81.626C13.7045 81.626 13.1615 81.407 12.7715 80.969C12.3815 80.531 12.1865 79.892 12.1865 79.052V77.648ZM14.4005 80.942C14.8865 80.942 15.2495 80.774 15.4895 80.438C15.7355 80.096 15.8585 79.616 15.8585 78.998V77.702C15.8585 77.414 15.8285 77.153 15.7685 76.919C15.7085 76.679 15.6155 76.475 15.4895 76.307C15.3695 76.133 15.2165 75.998 15.0305 75.902C14.8505 75.806 14.6405 75.758 14.4005 75.758C14.1545 75.758 13.9415 75.806 13.7615 75.902C13.5815 75.998 13.4285 76.133 13.3025 76.307C13.1825 76.475 13.0925 76.679 13.0325 76.919C12.9725 77.153 12.9425 77.414 12.9425 77.702V78.998C12.9425 79.616 13.0625 80.096 13.3025 80.438C13.5485 80.774 13.9145 80.942 14.4005 80.942ZM13.8245 78.35C13.8245 78.194 13.8815 78.059 13.9955 77.945C14.1095 77.831 14.2445 77.774 14.4005 77.774C14.5565 77.774 14.6915 77.831 14.8055 77.945C14.9195 78.059 14.9765 78.194 14.9765 78.35C14.9765 78.506 14.9195 78.641 14.8055 78.755C14.6915 78.869 14.5565 78.926 14.4005 78.926C14.2445 78.926 14.1095 78.869 13.9955 78.755C13.8815 78.641 13.8245 78.506 13.8245 78.35ZM19.0922 78.89H19.2452L20.9462 77.036H21.8102V77.09L19.9562 79.133V79.295L22.0262 81.446V81.5H21.1622L19.2632 79.538H19.0922V81.5H18.3902V75.2H19.0922V78.89Z" fill="#727272"/>
<path d="M27.625 78L211.625 78" stroke="url(#paint1_linear_104_1850)"/>
<path d="M3.046 149.495V144.23H2.938L1.903 146.597H1.156V146.543L2.335 143.897H3.802V149.495H5.584V150.197H1.264V149.495H3.046ZM6.67574 146.345C6.67574 145.529 6.87074 144.896 7.26074 144.446C7.65074 143.996 8.19374 143.771 8.88974 143.771C9.58574 143.771 10.1287 143.996 10.5187 144.446C10.9087 144.896 11.1037 145.529 11.1037 146.345V147.749C11.1037 148.589 10.9087 149.228 10.5187 149.666C10.1287 150.104 9.58574 150.323 8.88974 150.323C8.19374 150.323 7.65074 150.104 7.26074 149.666C6.87074 149.228 6.67574 148.589 6.67574 147.749V146.345ZM8.88974 149.639C9.37574 149.639 9.73874 149.471 9.97874 149.135C10.2247 148.793 10.3477 148.313 10.3477 147.695V146.399C10.3477 146.111 10.3177 145.85 10.2577 145.616C10.1977 145.376 10.1047 145.172 9.97874 145.004C9.85874 144.83 9.70574 144.695 9.51974 144.599C9.33974 144.503 9.12974 144.455 8.88974 144.455C8.64374 144.455 8.43074 144.503 8.25074 144.599C8.07074 144.695 7.91774 144.83 7.79174 145.004C7.67174 145.172 7.58174 145.376 7.52174 145.616C7.46174 145.85 7.43174 146.111 7.43174 146.399V147.695C7.43174 148.313 7.55174 148.793 7.79174 149.135C8.03774 149.471 8.40374 149.639 8.88974 149.639ZM8.31374 147.047C8.31374 146.891 8.37074 146.756 8.48474 146.642C8.59874 146.528 8.73374 146.471 8.88974 146.471C9.04574 146.471 9.18074 146.528 9.29474 146.642C9.40874 146.756 9.46574 146.891 9.46574 147.047C9.46574 147.203 9.40874 147.338 9.29474 147.452C9.18074 147.566 9.04574 147.623 8.88974 147.623C8.73374 147.623 8.59874 147.566 8.48474 147.452C8.37074 147.338 8.31374 147.203 8.31374 147.047ZM12.1865 146.345C12.1865 145.529 12.3815 144.896 12.7715 144.446C13.1615 143.996 13.7045 143.771 14.4005 143.771C15.0965 143.771 15.6395 143.996 16.0295 144.446C16.4195 144.896 16.6145 145.529 16.6145 146.345V147.749C16.6145 148.589 16.4195 149.228 16.0295 149.666C15.6395 150.104 15.0965 150.323 14.4005 150.323C13.7045 150.323 13.1615 150.104 12.7715 149.666C12.3815 149.228 12.1865 148.589 12.1865 147.749V146.345ZM14.4005 149.639C14.8865 149.639 15.2495 149.471 15.4895 149.135C15.7355 148.793 15.8585 148.313 15.8585 147.695V146.399C15.8585 146.111 15.8285 145.85 15.7685 145.616C15.7085 145.376 15.6155 145.172 15.4895 145.004C15.3695 144.83 15.2165 144.695 15.0305 144.599C14.8505 144.503 14.6405 144.455 14.4005 144.455C14.1545 144.455 13.9415 144.503 13.7615 144.599C13.5815 144.695 13.4285 144.83 13.3025 145.004C13.1825 145.172 13.0925 145.376 13.0325 145.616C12.9725 145.85 12.9425 146.111 12.9425 146.399V147.695C12.9425 148.313 13.0625 148.793 13.3025 149.135C13.5485 149.471 13.9145 149.639 14.4005 149.639ZM13.8245 147.047C13.8245 146.891 13.8815 146.756 13.9955 146.642C14.1095 146.528 14.2445 146.471 14.4005 146.471C14.5565 146.471 14.6915 146.528 14.8055 146.642C14.9195 146.756 14.9765 146.891 14.9765 147.047C14.9765 147.203 14.9195 147.338 14.8055 147.452C14.6915 147.566 14.5565 147.623 14.4005 147.623C14.2445 147.623 14.1095 147.566 13.9955 147.452C13.8815 147.338 13.8245 147.203 13.8245 147.047ZM19.0922 147.587H19.2452L20.9462 145.733H21.8102V145.787L19.9562 147.83V147.992L22.0262 150.143V150.197H21.1622L19.2632 148.235H19.0922V150.197H18.3902V143.897H19.0922V147.587Z" fill="#727272"/>
<path d="M27.625 146.697L211.625 146.697" stroke="url(#paint2_linear_104_1850)"/>
<path d="M26.625 98.0368H38.125V85.156H51.125V64.4037H62.125V85.156H68.625V98.0368H85.625V43.6514H99.125V57.9634H110.125V32.2019H124.625V64.4037H139.125V82.2936H152.125V50.8074H165.125V67.2661H174.625V32.2019H185.625V50.8074H195.625" stroke="url(#paint3_linear_104_1850)"/>
<path d="M26.625 134.532H38.125V127.812H51.125V134.159H62.125V127.812H68.625V134.532H85.625V117.607H99.125H99.1833H110.183L110.125 104.477H124.625V114.122H139.125V126.318H152.125V114.184H165.125V122.771H174.625V128.807H185.625V109.891H195.625" stroke="url(#paint4_linear_104_1850)"/>
<defs>
<linearGradient id="paint0_linear_104_1850" x1="27.625" y1="9.80273" x2="211.625" y2="9.80272" gradientUnits="userSpaceOnUse">
<stop stop-color="#E6E6E6"/>
<stop offset="0.504808" stop-color="#CCCCCC"/>
<stop offset="1" stop-color="#F1F1F1"/>
</linearGradient>
<linearGradient id="paint1_linear_104_1850" x1="27.625" y1="78.5" x2="211.625" y2="78.5" gradientUnits="userSpaceOnUse">
<stop stop-color="#E6E6E6"/>
<stop offset="0.504808" stop-color="#CCCCCC"/>
<stop offset="1" stop-color="#F1F1F1"/>
</linearGradient>
<linearGradient id="paint2_linear_104_1850" x1="27.625" y1="147.197" x2="211.625" y2="147.197" gradientUnits="userSpaceOnUse">
<stop stop-color="#E6E6E6"/>
<stop offset="0.504808" stop-color="#CCCCCC"/>
<stop offset="1" stop-color="#F1F1F1"/>
</linearGradient>
<linearGradient id="paint3_linear_104_1850" x1="26.625" y1="65.1193" x2="195.625" y2="65.1193" gradientUnits="userSpaceOnUse">
<stop stop-color="#0044F4" stop-opacity="0.3"/>
<stop offset="1" stop-color="#0044F4"/>
</linearGradient>
<linearGradient id="paint4_linear_104_1850" x1="26.625" y1="119.505" x2="195.625" y2="119.505" gradientUnits="userSpaceOnUse">
<stop stop-color="#ED7241" stop-opacity="0.3"/>
<stop offset="1" stop-color="#ED7241"/>
</linearGradient>
</defs>
</svg>
